# xmcd
#
# Track frame offsets:
#	150
#	12464
#	31985
#	46229
#	56367
#	76842
#	92239
#	110151
#	121917
#	139450
#	152144
#
# Disc length: 2308 seconds
#
# Revision: 0
# Processed by: cddbd v1.5.2PL0 Copyright (c) Steve Scherf et al.
# Submitted via: EasyCDDAExtractor 9.1.0.1
#
DISCID=8e09020b
DTITLE=Theresa Haddock - Meet Me In Heaven
DYEAR=2006
DGENRE=Gospel
TTITLE0=You Made It
TTITLE1=Meet Me In Heaven
TTITLE2=He's Not On The Cross
TTITLE3=A Name Above Other
TTITLE4=Nobody Loves Me Like You
TTITLE5=He'll Take Me Through It
TTITLE6=I Got Over My Past
TTITLE7=Gonna Keep On Walking
TTITLE8=Resting In His Arms
TTITLE9=Tested, Tried and Proven True
TTITLE10=If I've Got You
EXTD=
EXTT0=
EXTT1=
EXTT2=
EXTT3=
EXTT4=
EXTT5=
EXTT6=
EXTT7=
EXTT8=
EXTT9=
EXTT10=
PLAYORDER=
